:SAMPLES-PER-SECOND 30
:FULLY-SPECIFIED
:DEGREES
408
root  -3.7845 36.1352 -6.0297 -136.818 -86.5472 136.113
RightUpLeg  -21.4439 -25.2255 -21.1479
RightLeg  40.9 -7.10447 -6.76535
RightFoot  -1.56706 -1.35915 15.8915
RightToes  -1.33073e-015 0 -3.6325e-017
Spine  25.9917 1.3161 2.39007
Spine1  -14.7024 2.1357 -5.60117
HEad  -17.2269 6.40537 -4.76399
LeftShoulder1  0.715182 9.72347 22.7537
LeftArm  -74.4161 -14.4129 -16.1908
LeftForeArm  -30.9452 -65.966 -29.9682
LeftHand  0.937762 7.98025 39.5874
RightShoulder  0.157602 -6.14277 -16.2778
RightArm  -79.3878 5.40881 -1.27542
RightForeArm  -46.8941 46.7356 14.3703
RightHand  -2.0642 1.4256 -34.3657
LeftUpLeg  -22.8838 30.2402 13.1461
LeftLeg  41.2631 8.10871 7.95802
LeftFoot  -6.26219 0.613856 -12.976
LeftToes  -4.0021e-011 8.38769e-011 -3.99229e-011
409
root  -4.15705 36.7931 -5.10344 -145.042 -85.2238 144.252
RightUpLeg  -20.2887 -22.03 -21.4764
RightLeg  37.5041 -13.1059 -10.8043
RightFoot  3.50847 -1.42717 11.1603
RightToes  -1.33073e-015 0 -3.6325e-017
Spine  25.0864 1.36871 3.44039
Spine1  -16.2005 2.39314 -7.87968
HEad  -12.0624 7.05602 -4.38324
LeftShoulder1  0.246669 7.15804 16.4315
LeftArm  -66.1193 -11.7348 -19.9392
LeftForeArm  -7.87529 -74.1279 -50.5899
LeftHand  0.585222 7.04177 38.6313
RightShoulder  0.0344618 -4.82839 -11.6111
RightArm  -72.4213 3.65934 4.26599
RightForeArm  -36.5119 58.6035 21.797
RightHand  -2.33814 1.97965 -35.9327
LeftUpLeg  -19.7728 30.4826 11.6755
LeftLeg  37.9699 9.44949 8.20332
LeftFoot  -6.65522 0.613176 -13.9344
LeftToes  -4.0021e-011 8.38769e-011 -3.99229e-011
410
root  -4.58419 37.4952 -4.28036 -156.52 -83.7868 156.179
RightUpLeg  -20.8832 -21.2661 -19.1704
RightLeg  36.4924 -18.6703 -14.5396
RightFoot  4.63053 -0.795303 5.72321
RightToes  -1.33073e-015 0 -3.6325e-017
Spine  24.1022 1.18449 4.32904
Spine1  -19.2233 2.16687 -8.43298
HEad  -5.19167 9.33927 -4.14142
LeftShoulder1  0.000498247 3.53176 4.50384
LeftArm  -56.7363 -5.11353 -19.2142
LeftForeArm  38.2297 -77.9137 -91.7993
LeftHand  0.401751 6.53922 37.8758
RightShoulder  0.0572901 -2.60185 -3.39302
RightArm  -64.8007 2.77378 9.51786
RightForeArm  -13.706 70.6609 37.8393
RightHand  -2.36802 1.91843 -36.6354
LeftUpLeg  -16.7749 30.798 10.834
LeftLeg  33.9712 11.399 8.52542
LeftFoot  -5.71464 0.755098 -14.6026
LeftToes  -4.0021e-011 8.38769e-011 -3.99229e-011
411
root  -4.9112 37.9495 -3.64232 -159.103 -82.3157 159.157
RightUpLeg  -23.1429 -24.0573 -15.9466
RightLeg  39.5102 -18.8096 -16.1089
RightFoot  -0.209723 -0.535053 5.82224
RightToes  -1.33073e-015 0 -3.6325e-017
Spine  23.1291 0.981429 3.28537
Spine1  -21.0602 1.63297 -7.14574
HEad  -0.334523 12.1151 -3.35556
LeftShoulder1  0.292246 1.48498 -7.64332
LeftArm  -50.9011 3.32095 -17.5635
LeftForeArm  71.526 -76.2665 -119.972
LeftHand  0.194794 5.95337 36.4087
RightShoulder  0.411018 -0.516756 6.14211
RightArm  -57.8825 0.485621 13.477
RightForeArm  18.3509 76.8368 63.9154
RightHand  -2.21339 1.65168 -35.6066
LeftUpLeg  -14.6646 31.7125 9.75842
LeftLeg  31.1253 12.3886 8.32873
LeftFoot  -5.328 0.827496 -15.0929
LeftToes  -4.0021e-011 8.38769e-011 -3.99229e-011
412
root  -5.09228 37.9881 -3.15251 -155.529 -81.4722 155.256
RightUpLeg  -25.755 -28.0205 -13.2277
RightLeg  45.9303 -13.7202 -14.9009
RightFoot  -6.02401 -0.542573 10.5979
RightToes  -1.33073e-015 0 -3.6325e-017
Spine  22.8801 0.994387 0.628819
Spine1  -21.091 1.19249 -4.97444
HEad  1.16188 13.6831 -2.30212
LeftShoulder1  0.562287 0.912002 -14.9965
LeftArm  -48.7789 11.26 -19.848
LeftForeArm  81.2694 -74.9378 -128.035
LeftHand  -0.154246 4.85569 34.5176
RightShoulder  0.878145 0.777978 13.798
RightArm  -53.6599 -5.00472 16.9564
RightForeArm  47.4969 78.138 91.2639
RightHand  -2.12019 1.78083 -33.6266
LeftUpLeg  -13.7728 32.9692 8.60552
LeftLeg  31.2249 11.5123 7.79606
LeftFoot  -6.99829 0.631499 -15.4806
LeftToes  -4.0021e-011 8.38769e-011 -3.99229e-011
413
root  -5.13252 37.507 -2.70873 -152.586 -82.0133 151.281
RightUpLeg  -28.1002 -31.8173 -10.7241
RightLeg  54.5115 -7.88472 -12.066
RightFoot  -7.72577 -0.47959 13.3251
RightToes  -1.33073e-015 0 -3.6325e-017
Spine  23.3358 1.04835 -1.47246
Spine1  -19.5023 0.898209 -2.58383
HEad  -0.463033 13.4677 -1.95939
LeftShoulder1  0.643596 0.742365 -16.6095
LeftArm  -48.6479 16.3967 -25.2739
LeftForeArm  81.0461 -74.3786 -130.203
LeftHand  -0.396963 4.01672 33.2494
RightShoulder  1.08746 1.18625 16.6434
RightArm  -53.052 -11.7766 20.3744
RightForeArm  66.5024 77.0697 112.827
RightHand  -2.04566 1.69352 -32.8922
LeftUpLeg  -15.0137 33.85 8.42634
LeftLeg  36.0487 9.04528 7.36385
LeftFoot  -10.2626 0.207038 -15.276
LeftToes  -4.0021e-011 8.38769e-011 -3.99229e-011
414
root  -5.06894 36.4255 -2.26009 -152.177 -83.7848 149.705
RightUpLeg  -30.7207 -35.3933 -7.69022
RightLeg  63.5756 -4.34671 -10.1006
RightFoot  -6.97223 -0.509424 12.0382
RightToes  -1.33073e-015 0 -3.6325e-017
Spine  23.8773 0.836324 -1.93639
Spine1  -17.1223 0.55373 -0.63548
HEad  -3.59166 12.1844 -2.20019
LeftShoulder1  0.589195 0.708769 -14.185
LeftArm  -48.8752 16.4306 -27.9917
LeftForeArm  79.482 -73.8261 -132.071
LeftHand  -0.369033 4.10611 33.2054
RightShoulder  0.918552 0.743821 14.8347
RightArm  -55.1796 -15.2197 21.7342
RightForeArm  72.4836 75.6471 123.297
RightHand  -1.99612 1.39588 -33.4616
LeftUpLeg  -18.7953 34.0768 9.29564
LeftLeg  45.3719 5.91623 6.79031
LeftFoot  -14.4055 -0.300237 -14.4239
LeftToes  -4.0021e-011 8.38769e-011 -3.99229e-011
415
root  -4.92739 34.8145 -1.81922 -151.29 -85.422 148.09
RightUpLeg  -33.7051 -37.4005 -4.70749
RightLeg  71.0685 -3.01131 -10.6987
RightFoot  -9.92772 -0.198652 10.2193
RightToes  -1.33073e-015 0 -3.6325e-017
Spine  24.9969 0.657422 -1.99688
Spine1  -16.4004 0.282129 0.744227
HEad  -5.85133 10.7986 -2.03358
LeftShoulder1  0.37231 1.28583 -9.26847
LeftArm  -49.6234 11.2464 -24.4083
LeftForeArm  76.3179 -73.9611 -131.282
LeftHand  -0.272698 4.43577 33.1689
RightShoulder  0.513551 -0.615848 10.4831
RightArm  -58.8062 -13.3649 18.4762
RightForeArm  64.5112 75.8858 120.581
RightHand  -1.96622 1.32174 -33.3282
LeftUpLeg  -24.2307 34.224 9.87719
LeftLeg  56.5044 3.23405 5.81448
LeftFoot  -19.191 -0.790865 -13.172
LeftToes  -4.0021e-011 8.38769e-011 -3.99229e-011
416
root  -4.65675 32.9586 -1.40483 -145.882 -85.966 142.564
RightUpLeg  -36.7272 -36.7592 -2.8773
RightLeg  76.4018 -2.61375 -13.7934
RightFoot  -18.665 0.505613 9.74926
RightToes  -1.33073e-015 0 -3.6325e-017
Spine  27.9126 1.05567 -2.96306
Spine1  -18.8112 0.405675 2.16162
HEad  -7.29765 9.78746 -1.57338
LeftShoulder1  0.0511279 3.09663 -2.08031
LeftArm  -53.22 3.12149 -17.5867
LeftForeArm  62.1626 -75.975 -119.456
LeftHand  -0.247465 4.48626 31.7627
RightShoulder  0.109079 -2.63817 4.45476
RightArm  -64.1341 -8.33072 11.6136
RightForeArm  36.2905 77.4807 98.4027
RightHand  -1.78543 1.15426 -31.1305
LeftUpLeg  -30.2705 34.8825 9.05343
LeftLeg  66.897 1.64685 5.08436
LeftFoot  -24.0413 -1.15368 -11.633
LeftToes  -4.0021e-011 8.38769e-011 -3.99229e-011
417
root  -4.21428 31.0964 -0.978231 -138.723 -85.8688 135.44
RightUpLeg  -40.0929 -34.9605 -2.50106
RightLeg  81.2723 -1.86324 -17.5554
RightFoot  -28.004 1.31961 10.2719
RightToes  -1.33073e-015 0 -3.6325e-017
Spine  32.2197 1.81008 -4.10016
Spine1  -21.5871 0.801774 3.36238
HEad  -11.5185 8.99351 -2.03526
LeftShoulder1  -0.0634165 6.05757 6.54683
LeftArm  -60.8525 -4.7494 -10.8585
LeftForeArm  20.2585 -77.3751 -80.884
LeftHand  -0.223727 4.53654 30.4328
RightShoulder  -0.0703377 -4.70996 -2.82962
RightArm  -71.8475 -4.03398 3.6849
RightForeArm  -10.3353 75.0056 56.4414
RightHand  -1.54126 1.05398 -27.4675
LeftUpLeg  -36.3587 35.9998 7.21521
LeftLeg  76.0175 0.761434 4.94083
LeftFoot  -28.2016 -1.319 -10.0176
LeftToes  -4.0021e-011 8.38769e-011 -3.99229e-011
